<svg xmlns="http://www.w3.org/2000/svg" viewBox="0 0 1600 900"><path fill="#2ed2ff" d="M0 0h1600v900H0z"/><path fill="#e04b2d" d="M957 450L539 900h857z"/><path fill="#e0b826" d="M957 450l-84.1 450H1396z"/><path fill="#e52c43" d="M-60 900l458-238 418 238z"/><path fill="#ee8c26" d="M337 900l61-238 418 238z"/><path fill="#e3005b" d="M1203 546l349 354H876z"/><path fill="#ef5d3d" d="M1203 546l349 354h-390z"/><path fill="#da0075" d="M641 695l245 205H367z"/><path fill="#e02957" d="M587 900l54-205 245 205z"/><path fill="#c70090" d="M1710 900l-309-268-305 268z"/><path fill="#be0072" d="M1710 900l-309-268-36 268z"/><path fill="#a0a" d="M1210 900L971 687 725 900z"/><path fill="#808" d="M943 900h267L971 687z"/></svg>